<svg width="100" height="125" viewBox="0 0 100 125" fill="none" xmlns="http://www.w3.org/2000/svg">
<g filter="url(#filter0_dd_34_17)">
<path d="M7 45.8667L26 35.5V107.5L7 96.5V82.6H12.82V93L18.7 96.5V51L7 57.4667V45.8667Z" fill="#C4B5FD"/>
<path d="M33 32.1L42.22 26.5L50.06 62L58 26.5L67 32V111.5L58 116.5V55.5333L50.06 87.5L42.22 55.5333V116.5L33 111.5V32.1Z" fill="#C4B5FD"/>
<path fill-rule="evenodd" clip-rule="evenodd" d="M73.5 36L93 47V96L73.5 107.5V36ZM81.5 93V50.5L86.5 54.0333V90.1333L81.5 93Z" fill="#C4B5FD"/>
</g>
<path d="M17.2916 10.5V2.86364H18.4252V4.05682H18.5246C18.6837 3.64915 18.9405 3.33262 19.2952 3.10724C19.6498 2.87855 20.0757 2.7642 20.5729 2.7642C21.0767 2.7642 21.4959 2.87855 21.8307 3.10724C22.1688 3.33262 22.4323 3.64915 22.6212 4.05682H22.7007C22.8963 3.66241 23.1896 3.34919 23.5807 3.11719C23.9718 2.88187 24.4408 2.7642 24.9877 2.7642C25.6704 2.7642 26.2289 2.97798 26.6631 3.40554C27.0973 3.82978 27.3144 4.491 27.3144 5.3892V10.5H26.1411V5.3892C26.1411 4.82576 25.9869 4.42306 25.6787 4.18111C25.3705 3.93916 25.0075 3.81818 24.5899 3.81818C24.053 3.81818 23.637 3.98059 23.3421 4.3054C23.0471 4.62689 22.8996 5.03456 22.8996 5.52841V10.5H21.7064V5.26989C21.7064 4.8357 21.5655 4.48603 21.2838 4.22088C21.0021 3.95241 20.6392 3.81818 20.195 3.81818C19.8901 3.81818 19.6051 3.89938 19.3399 4.06179C19.0781 4.22419 18.866 4.44957 18.7036 4.73793C18.5445 5.02296 18.4649 5.35275 18.4649 5.72727V10.5H17.2916ZM31.7068 10.679C31.2229 10.679 30.7837 10.5878 30.3893 10.4055C29.9949 10.2199 29.6817 9.95312 29.4497 9.60511C29.2177 9.25379 29.1017 8.82955 29.1017 8.33239C29.1017 7.89489 29.1878 7.54025 29.3602 7.26847C29.5325 6.99337 29.7629 6.77794 30.0512 6.62216C30.3396 6.46638 30.6578 6.35038 31.0058 6.27415C31.3571 6.1946 31.7101 6.13163 32.0647 6.08523C32.5287 6.02557 32.9049 5.98082 33.1933 5.95099C33.4849 5.91785 33.6971 5.86316 33.8296 5.78693C33.9655 5.7107 34.0335 5.57812 34.0335 5.3892V5.34943C34.0335 4.8589 33.8992 4.47775 33.6308 4.20597C33.3656 3.93419 32.9629 3.7983 32.4227 3.7983C31.8625 3.7983 31.4234 3.92093 31.1052 4.16619C30.787 4.41146 30.5633 4.6733 30.434 4.9517L29.3204 4.55398C29.5193 4.08996 29.7844 3.72869 30.1159 3.47017C30.4506 3.20833 30.8152 3.02604 31.2096 2.9233C31.6073 2.81723 31.9984 2.7642 32.3829 2.7642C32.6282 2.7642 32.9099 2.79403 33.2281 2.85369C33.5496 2.91004 33.8595 3.0277 34.1578 3.20668C34.4594 3.38565 34.7096 3.65578 34.9085 4.01705C35.1073 4.37831 35.2068 4.86222 35.2068 5.46875V10.5H34.0335V9.46591H33.9738C33.8943 9.63163 33.7617 9.80895 33.5761 9.99787C33.3905 10.1868 33.1436 10.3475 32.8353 10.4801C32.5271 10.6127 32.1509 10.679 31.7068 10.679ZM31.8857 9.625C32.3498 9.625 32.7409 9.53385 33.059 9.35156C33.3805 9.16927 33.6225 8.93395 33.7849 8.6456C33.9506 8.35724 34.0335 8.05398 34.0335 7.7358V6.66193C33.9838 6.72159 33.8744 6.77628 33.7053 6.82599C33.5396 6.8724 33.3474 6.91383 33.1286 6.95028C32.9132 6.98343 32.7027 7.01326 32.4972 7.03977C32.2951 7.06297 32.131 7.08286 32.0051 7.09943C31.7001 7.1392 31.4151 7.20384 31.1499 7.29332C30.8881 7.3795 30.676 7.51042 30.5136 7.68608C30.3545 7.85843 30.2749 8.09375 30.2749 8.39205C30.2749 8.79972 30.4258 9.10795 30.7274 9.31676C31.0323 9.52225 31.4184 9.625 31.8857 9.625ZM37.3483 10.5V2.86364H38.5216V10.5H37.3483ZM37.9449 1.59091C37.7162 1.59091 37.519 1.51302 37.3532 1.35724C37.1908 1.20147 37.1096 1.0142 37.1096 0.795455C37.1096 0.576705 37.1908 0.389441 37.3532 0.233664C37.519 0.0778881 37.7162 0 37.9449 0C38.1736 0 38.3691 0.0778881 38.5315 0.233664C38.6972 0.389441 38.7801 0.576705 38.7801 0.795455C38.7801 1.0142 38.6972 1.20147 38.5315 1.35724C38.3691 1.51302 38.1736 1.59091 37.9449 1.59091ZM41.8438 5.90625V10.5H40.6705V2.86364H41.8041V4.05682H41.9035C42.0825 3.66903 42.3543 3.35748 42.7188 3.12216C43.0834 2.88352 43.5541 2.7642 44.1308 2.7642C44.6478 2.7642 45.1002 2.87027 45.488 3.08239C45.8758 3.29119 46.1774 3.60938 46.3928 4.03693C46.6083 4.46117 46.716 4.99811 46.716 5.64773V10.5H45.5427V5.72727C45.5427 5.12737 45.3869 4.66004 45.0754 4.32528C44.7638 3.98722 44.3363 3.81818 43.7927 3.81818C43.4182 3.81818 43.0834 3.89938 42.7884 4.06179C42.4968 4.22419 42.2664 4.46117 42.0974 4.77273C41.9284 5.08428 41.8438 5.46212 41.8438 5.90625ZM55.8998 10.6591C55.1839 10.6591 54.5674 10.4901 54.0503 10.152C53.5333 9.81392 53.1356 9.34825 52.8572 8.75497C52.5787 8.16169 52.4395 7.4839 52.4395 6.72159C52.4395 5.94602 52.5821 5.2616 52.8671 4.66832C53.1555 4.07173 53.5565 3.60606 54.0702 3.27131C54.5873 2.93324 55.1905 2.7642 55.8799 2.7642C56.4168 2.7642 56.9007 2.86364 57.3316 3.0625C57.7625 3.26136 58.1154 3.53977 58.3905 3.89773C58.6656 4.25568 58.8363 4.6733 58.9026 5.15057H57.7293C57.6398 4.80256 57.441 4.49432 57.1327 4.22585C56.8278 3.95407 56.4168 3.81818 55.8998 3.81818C55.4424 3.81818 55.0413 3.9375 54.6966 4.17614C54.3553 4.41146 54.0885 4.74455 53.8962 5.17543C53.7073 5.60298 53.6128 6.10511 53.6128 6.68182C53.6128 7.27178 53.7056 7.78551 53.8912 8.22301C54.0802 8.66051 54.3453 9.00024 54.6867 9.24219C55.0314 9.48414 55.4358 9.60511 55.8998 9.60511C56.2047 9.60511 56.4814 9.55208 56.73 9.44602C56.9786 9.33996 57.1891 9.1875 57.3614 8.98864C57.5338 8.78977 57.6564 8.55114 57.7293 8.27273H58.9026C58.8363 8.72348 58.6723 9.1295 58.4104 9.49077C58.1519 9.84872 57.8089 10.1338 57.3813 10.3459C56.9571 10.5547 56.4632 10.6591 55.8998 10.6591ZM63.7201 10.6591C63.0307 10.6591 62.4258 10.495 61.9055 10.1669C61.3884 9.83878 60.984 9.37973 60.6924 8.78977C60.404 8.19981 60.2599 7.51042 60.2599 6.72159C60.2599 5.92614 60.404 5.23177 60.6924 4.63849C60.984 4.04522 61.3884 3.58452 61.9055 3.25639C62.4258 2.92827 63.0307 2.7642 63.7201 2.7642C64.4095 2.7642 65.0127 2.92827 65.5297 3.25639C66.0501 3.58452 66.4545 4.04522 66.7428 4.63849C67.0345 5.23177 67.1803 5.92614 67.1803 6.72159C67.1803 7.51042 67.0345 8.19981 66.7428 8.78977C66.4545 9.37973 66.0501 9.83878 65.5297 10.1669C65.0127 10.495 64.4095 10.6591 63.7201 10.6591ZM63.7201 9.60511C64.2438 9.60511 64.6746 9.47088 65.0127 9.20241C65.3508 8.93395 65.601 8.58097 65.7634 8.14347C65.9258 7.70597 66.007 7.23201 66.007 6.72159C66.007 6.21117 65.9258 5.73556 65.7634 5.29474C65.601 4.85393 65.3508 4.49763 65.0127 4.22585C64.6746 3.95407 64.2438 3.81818 63.7201 3.81818C63.1964 3.81818 62.7655 3.95407 62.4275 4.22585C62.0894 4.49763 61.8392 4.85393 61.6768 5.29474C61.5144 5.73556 61.4331 6.21117 61.4331 6.72159C61.4331 7.23201 61.5144 7.70597 61.6768 8.14347C61.8392 8.58097 62.0894 8.93395 62.4275 9.20241C62.7655 9.47088 63.1964 9.60511 63.7201 9.60511ZM70.1446 0.318182V10.5H68.9713V0.318182H70.1446ZM75.3959 10.6591C74.7065 10.6591 74.1016 10.495 73.5812 10.1669C73.0642 9.83878 72.6598 9.37973 72.3682 8.78977C72.0798 8.19981 71.9356 7.51042 71.9356 6.72159C71.9356 5.92614 72.0798 5.23177 72.3682 4.63849C72.6598 4.04522 73.0642 3.58452 73.5812 3.25639C74.1016 2.92827 74.7065 2.7642 75.3959 2.7642C76.0853 2.7642 76.6885 2.92827 77.2055 3.25639C77.7259 3.58452 78.1302 4.04522 78.4186 4.63849C78.7103 5.23177 78.8561 5.92614 78.8561 6.72159C78.8561 7.51042 78.7103 8.19981 78.4186 8.78977C78.1302 9.37973 77.7259 9.83878 77.2055 10.1669C76.6885 10.495 76.0853 10.6591 75.3959 10.6591ZM75.3959 9.60511C75.9195 9.60511 76.3504 9.47088 76.6885 9.20241C77.0265 8.93395 77.2768 8.58097 77.4392 8.14347C77.6016 7.70597 77.6828 7.23201 77.6828 6.72159C77.6828 6.21117 77.6016 5.73556 77.4392 5.29474C77.2768 4.85393 77.0265 4.49763 76.6885 4.22585C76.3504 3.95407 75.9195 3.81818 75.3959 3.81818C74.8722 3.81818 74.4413 3.95407 74.1032 4.22585C73.7652 4.49763 73.5149 4.85393 73.3525 5.29474C73.1901 5.73556 73.1089 6.21117 73.1089 6.72159C73.1089 7.23201 73.1901 7.70597 73.3525 8.14347C73.5149 8.58097 73.7652 8.93395 74.1032 9.20241C74.4413 9.47088 74.8722 9.60511 75.3959 9.60511ZM80.6471 10.5V2.86364H81.7806V4.01705H81.8602C81.9994 3.6392 82.2513 3.33262 82.6159 3.0973C82.9804 2.86198 83.3914 2.74432 83.8488 2.74432C83.935 2.74432 84.0427 2.74597 84.172 2.74929C84.3012 2.7526 84.399 2.75758 84.4653 2.7642V3.95739C84.4255 3.94744 84.3344 3.93253 84.1919 3.91264C84.0526 3.88944 83.9052 3.87784 83.7494 3.87784C83.3782 3.87784 83.0467 3.95573 82.7551 4.11151C82.4667 4.26397 82.238 4.47609 82.069 4.74787C81.9033 5.01634 81.8204 5.32292 81.8204 5.66761V10.5H80.6471Z" fill="black"/>
<defs>
<filter id="filter0_dd_34_17" x="3" y="26.5" width="94" height="98" filterUnits="userSpaceOnUse" color-interpolation-filters="sRGB">
<feFlood flood-opacity="0" result="BackgroundImageFix"/>
<feColorMatrix in="SourceAlpha" type="matrix" values="0 0 0 0 0 0 0 0 0 0 0 0 0 0 0 0 0 0 127 0" result="hardAlpha"/>
<feOffset dy="4"/>
<feGaussianBlur stdDeviation="2"/>
<feComposite in2="hardAlpha" operator="out"/>
<feColorMatrix type="matrix" values="0 0 0 0 0 0 0 0 0 0 0 0 0 0 0 0 0 0 0.25 0"/>
<feBlend mode="normal" in2="BackgroundImageFix" result="effect1_dropShadow_34_17"/>
<feColorMatrix in="SourceAlpha" type="matrix" values="0 0 0 0 0 0 0 0 0 0 0 0 0 0 0 0 0 0 127 0" result="hardAlpha"/>
<feOffset dy="2"/>
<feGaussianBlur stdDeviation="1"/>
<feComposite in2="hardAlpha" operator="out"/>
<feColorMatrix type="matrix" values="0 0 0 0 0 0 0 0 0 0 0 0 0 0 0 0 0 0 0.06 0"/>
<feBlend mode="normal" in2="effect1_dropShadow_34_17" result="effect2_dropShadow_34_17"/>
<feBlend mode="normal" in="SourceGraphic" in2="effect2_dropShadow_34_17" result="shape"/>
</filter>
</defs>
</svg>
