<svg width="150" height="93" viewBox="0 0 150 93" fill="none" xmlns="http://www.w3.org/2000/svg">
<path d="M149.207 73.1781C140.976 65.0349 130.585 59.8463 119.155 58.1728C117.697 57.959 116.339 58.9768 116.129 60.4299C115.916 61.8863 116.927 63.2454 118.384 63.4595C127.733 64.8276 136.36 68.8358 143.419 75.076C134.736 82.7407 123.587 87.0614 111.872 87.2735C100.735 87.4821 89.9806 83.9486 81.2528 77.308C107.842 73.8889 128.602 51.1411 128.75 23.7917C128.755 23.0833 128.469 22.3896 127.971 21.8905C127.434 21.3505 126.713 21.0555 126.02 21.1057C114.697 21.1773 103.882 24.7184 94.7443 31.3488C93.5529 32.2148 93.2878 33.8886 94.1527 35.0802C94.5722 35.6567 95.1903 36.0359 95.8943 36.1481C96.5983 36.2602 97.3065 36.0916 97.8837 35.6722C105.351 30.253 114.117 27.1093 123.315 26.5405C122.56 38.6415 117.327 49.9518 108.492 58.5149C100.843 65.928 91.1967 70.5786 80.843 71.9647C97.2405 50.7769 95.9336 20.1132 76.805 0.77584C76.3176 0.28288 75.6255 0 74.9055 0C74.1861 0 73.494 0.282696 73.0072 0.775286C64.8638 9.00721 59.675 19.3977 58.0027 30.8247C57.7897 32.2812 58.8014 33.6402 60.2654 33.8553C61.7224 34.0605 63.077 33.0472 63.2884 31.5981C64.6567 22.2514 68.6645 13.6237 74.9038 6.56427C82.8651 15.5965 87.1107 27.2332 86.8854 39.4842C86.6902 50.0874 83.1481 60.162 76.8165 68.4458C73.4271 42.077 50.9562 21.3966 23.9511 21.1183C23.2223 21.1133 22.5432 21.3851 22.0321 21.891C21.5293 22.3892 21.2405 23.0809 21.2405 23.7893V28.7469C21.2405 28.8345 21.2445 28.9233 21.2542 29.0176C22.1788 38.1031 25.4389 46.8647 30.6814 54.3554C31.5232 55.5596 33.1903 55.8545 34.4018 55.0123C34.9863 54.6033 35.3768 53.991 35.5004 53.2885C35.6245 52.5857 35.4678 51.8767 35.0583 51.2922C30.3636 44.5851 27.4337 36.743 26.5824 28.6093V26.5635C38.5444 27.3597 49.7291 32.6017 58.1939 41.4095C65.5074 49.0188 70.0985 58.5911 71.4727 68.8476C50.437 52.6452 19.9509 54.2411 0.799783 73.0003C0.287557 73.504 0.00356284 74.1768 4.30225e-05 74.8926C-0.00403255 75.6021 0.28163 76.2965 0.78274 76.7959L4.27773 80.29C4.34276 80.3569 4.41074 80.4184 4.48892 80.4828C14.0415 88.2689 26.1119 92.5564 38.4779 92.5562C38.4792 92.5562 38.4815 92.5562 38.482 92.5562H38.5813C48.2458 92.5488 57.7245 89.9524 65.9922 85.0471C66.6055 84.6833 67.0411 84.1018 67.2172 83.4106C67.3942 82.719 67.2906 82.0001 66.9273 81.3874C66.564 80.7741 65.9833 80.3385 65.2917 80.162C64.5991 79.984 63.8792 80.0886 63.2656 80.4525C55.8273 84.8659 47.2956 87.204 38.5902 87.214H38.4535C27.3675 87.2081 16.5443 83.3774 7.96891 76.426L6.52134 74.9797C15.5515 67.069 27.1421 62.8374 39.3355 63.0303C51.9637 63.2339 63.8121 68.1842 72.6991 76.9699C72.7021 76.9728 72.705 76.9758 72.708 76.9786C72.708 76.9786 72.7083 76.9789 72.7085 76.9793L72.7091 76.9799C72.7143 76.9849 72.7195 76.9901 72.7245 76.9951C82.9225 87.0758 96.4942 92.6268 110.946 92.6268C110.948 92.6268 110.951 92.6268 110.953 92.6268C125.419 92.6262 139.005 87.0679 149.208 76.9751C149.711 76.4767 150 75.7848 150 75.0768C150 74.3684 149.711 73.6764 149.207 73.1781Z" fill="#F7A8AA"/>
</svg>
